<svg viewBox="0 0 97 103" fill="none" xmlns="http://www.w3.org/2000/svg">
<path d="M96.9558 7.24573V99.3621C96.9558 101.116 95.5356 102.538 93.7838 102.538H7.66466C5.91283 102.538 4.49268 101.116 4.49268 99.3621V7.24573C4.49268 5.49188 5.91283 4.07007 7.66466 4.07007H93.7838C95.5356 4.07007 96.9558 5.49177 96.9558 7.24573Z" fill="#F0F0F0"/>
<path d="M93.1579 3.60792V95.7244C93.1579 97.4782 91.7377 98.9001 89.9859 98.9001H3.86684C2.1149 98.9001 0.694824 97.4782 0.694824 95.7244V3.60792C0.694824 1.85407 2.11501 0.432251 3.86684 0.432251H89.9859C91.7377 0.432251 93.1579 1.85407 93.1579 3.60792Z" fill="white"/>
<path d="M89.9851 99.0274H3.86597C2.0466 99.0274 0.566406 97.5455 0.566406 95.7242V3.60769C0.566406 1.78633 2.0466 0.304443 3.86597 0.304443H89.9851C91.8044 0.304443 93.2846 1.78633 93.2846 3.60769V95.7242C93.2847 97.5455 91.8046 99.0274 89.9851 99.0274ZM3.86607 0.559715C2.18726 0.559715 0.821499 1.92705 0.821499 3.60769V95.7242C0.821499 97.4048 2.18726 98.7721 3.86607 98.7721H89.9852C91.664 98.7721 93.0298 97.4048 93.0298 95.7242V3.60769C93.0298 1.92705 91.664 0.559715 89.9852 0.559715H3.86607V0.559715Z" fill="#333333"/>
<path d="M59.7321 92.49H7.08965C5.65119 92.49 4.48096 91.3184 4.48096 89.8782V78.2255C4.48096 78.155 4.53804 78.0979 4.60848 78.0979H62.2133C62.2838 78.0979 62.3408 78.155 62.3408 78.2255V89.8782C62.3408 91.3184 61.1705 92.49 59.7321 92.49ZM4.73592 78.3531V89.8781C4.73592 91.1775 5.79174 92.2347 7.08965 92.2347H59.7321C61.03 92.2347 62.0858 91.1775 62.0858 89.8781V78.3531H4.73592Z" fill="#333333"/>
<path d="M62.2143 33.9435V78.2259H4.60938V33.9435C4.60938 32.5715 5.72026 31.4594 7.09065 31.4594H59.7331C61.1034 31.4592 62.2143 32.5715 62.2143 33.9435Z" fill="#B2CFFF"/>
<path d="M62.2133 78.3531H4.60848C4.53804 78.3531 4.48096 78.2961 4.48096 78.2256V33.9431C4.48096 32.5029 5.65119 31.3313 7.08965 31.3313H59.7321C61.1705 31.3313 62.3408 32.5029 62.3408 33.9431V78.2256C62.3408 78.2961 62.2837 78.3531 62.2133 78.3531ZM4.73592 78.0979H62.0858V33.9431C62.0858 32.6437 61.03 31.5866 59.7321 31.5866H7.08965C5.79174 31.5866 4.73592 32.6437 4.73592 33.9431V78.0979V78.0979Z" fill="#333333"/>
<path d="M11.9651 14.7591H8.01442C6.13333 14.7591 4.6084 13.2325 4.6084 11.3491V7.39394C4.6084 5.51067 6.13333 3.98389 8.01442 3.98389H11.9651C13.8462 3.98389 15.3711 5.51057 15.3711 7.39394V11.3491C15.3712 13.2325 13.8463 14.7591 11.9651 14.7591Z" fill="#B2CFFF"/>
<path d="M11.9648 14.8864H8.01404C6.06563 14.8864 4.48047 13.2994 4.48047 11.3489V7.39359C4.48047 5.44293 6.06563 3.85596 8.01404 3.85596H11.9648C13.9132 3.85596 15.4983 5.44304 15.4983 7.39359V11.3489C15.4983 13.2995 13.9132 14.8864 11.9648 14.8864ZM8.01415 4.11123C6.20629 4.11123 4.73556 5.58375 4.73556 7.3937V11.349C4.73556 13.1589 6.20629 14.6312 8.01415 14.6312H11.9649C13.7727 14.6312 15.2434 13.1588 15.2434 11.349V7.39359C15.2434 5.58365 13.7727 4.11112 11.9649 4.11112H8.01415V4.11123Z" fill="#333333"/>
<path d="M45.1946 8.23891H21.5072C20.787 8.23891 20.2031 7.6544 20.2031 6.93337V6.78943C20.2031 6.0684 20.787 5.48389 21.5072 5.48389H45.1946C45.9148 5.48389 46.4986 6.0684 46.4986 6.78943V6.93337C46.4986 7.6544 45.9148 8.23891 45.1946 8.23891Z" fill="#F0F0F0"/>
<path d="M45.1952 8.36613H21.5077C20.7184 8.36613 20.0762 7.72326 20.0762 6.93301V6.78906C20.0762 5.9987 20.7183 5.35583 21.5077 5.35583H45.1952C45.9845 5.35583 46.6267 5.9987 46.6267 6.78906V6.93301C46.6267 7.72316 45.9845 8.36613 45.1952 8.36613ZM21.5077 5.611C20.859 5.611 20.3311 6.13952 20.3311 6.78895V6.9329C20.3311 7.58244 20.859 8.11075 21.5077 8.11075H45.1952C45.8439 8.11075 46.3717 7.58244 46.3717 6.9329V6.78906C46.3717 6.13952 45.8439 5.61111 45.1952 5.61111H21.5077V5.611Z" fill="#333333"/>
<path d="M39.5736 13.2592H21.5081C20.7879 13.2592 20.2041 12.6747 20.2041 11.9536V11.8097C20.2041 11.0887 20.7879 10.5042 21.5081 10.5042H39.5736C40.2938 10.5042 40.8776 11.0887 40.8776 11.8097V11.9536C40.8776 12.6747 40.2938 13.2592 39.5736 13.2592Z" fill="#F0F0F0"/>
<path d="M39.5732 13.3865H21.5077C20.7184 13.3865 20.0762 12.7437 20.0762 11.9534V11.8094C20.0762 11.0191 20.7183 10.3762 21.5077 10.3762H39.5732C40.3625 10.3762 41.0048 11.0191 41.0048 11.8094V11.9534C41.0048 12.7435 40.3625 13.3865 39.5732 13.3865ZM21.5077 10.6314C20.859 10.6314 20.3311 11.1599 20.3311 11.8093V11.9533C20.3311 12.6028 20.859 13.1311 21.5077 13.1311H39.5732C40.2219 13.1311 40.7498 12.6028 40.7498 11.9533V11.8093C40.7498 11.1598 40.222 10.6314 39.5732 10.6314H21.5077Z" fill="#333333"/>
<path d="M50.4528 84.0487H9.6678C8.9476 84.0487 8.36377 83.4642 8.36377 82.7432V82.5992C8.36377 81.8782 8.9476 81.2937 9.6678 81.2937H50.4528C51.173 81.2937 51.7568 81.8782 51.7568 82.5992V82.7432C51.7567 83.4642 51.1729 84.0487 50.4528 84.0487Z" fill="#CECECE"/>
<path d="M50.4524 84.176H9.66731C8.87797 84.176 8.23584 83.5331 8.23584 82.7428V82.5989C8.23584 81.8086 8.87797 81.1658 9.66731 81.1658H50.4524C51.2418 81.1658 51.8839 81.8086 51.8839 82.5989V82.7428C51.8839 83.533 51.2418 84.176 50.4524 84.176ZM9.66731 81.4209C9.01863 81.4209 8.4908 81.9492 8.4908 82.5988V82.7427C8.4908 83.3923 9.01852 83.9206 9.66731 83.9206H50.4524C51.1011 83.9206 51.6289 83.3923 51.6289 82.7427V82.5988C51.6289 81.9492 51.1012 81.4209 50.4524 81.4209H9.66731Z" fill="#333333"/>
<path d="M35.5787 88.6041H9.50746C8.87577 88.6041 8.36377 88.0914 8.36377 87.459C8.36377 86.8266 8.87588 86.314 9.50746 86.314H35.5787C36.2104 86.314 36.7225 86.8267 36.7225 87.459C36.7224 88.0914 36.2104 88.6041 35.5787 88.6041Z" fill="#F0F0F0"/>
<path d="M35.5784 88.7313H9.50708C8.80613 88.7313 8.23584 88.1604 8.23584 87.4586C8.23584 86.7569 8.80613 86.186 9.50708 86.186H35.5782C36.2792 86.186 36.8495 86.7569 36.8495 87.4586C36.8496 88.1604 36.2793 88.7313 35.5784 88.7313ZM9.50708 86.4413C8.94669 86.4413 8.4908 86.8976 8.4908 87.4586C8.4908 88.0197 8.94679 88.476 9.50708 88.476H35.5782C36.1386 88.476 36.5945 88.0197 36.5945 87.4586C36.5945 86.8976 36.1386 86.4413 35.5782 86.4413H9.50708Z" fill="#333333"/>
<path d="M86.9612 22.0933H5.91292C5.19272 22.0933 4.60889 21.5088 4.60889 20.7877V20.6438C4.60889 19.9228 5.19272 19.3383 5.91292 19.3383H86.9612C87.6814 19.3383 88.2652 19.9228 88.2652 20.6438V20.7877C88.2652 21.5088 87.6814 22.0933 86.9612 22.0933Z" fill="#F0F0F0"/>
<path d="M86.9607 22.2207H5.9124C5.12306 22.2207 4.48096 21.5779 4.48096 20.7875V20.6436C4.48096 19.8533 5.12306 19.2104 5.9124 19.2104H86.9607C87.75 19.2104 88.3922 19.8533 88.3922 20.6436V20.7875C88.3922 21.5779 87.75 22.2207 86.9607 22.2207ZM5.9124 19.4657C5.26361 19.4657 4.73592 19.994 4.73592 20.6436V20.7875C4.73592 21.4371 5.26361 21.9655 5.9124 21.9655H86.9607C87.6095 21.9655 88.1373 21.4369 88.1373 20.7875V20.6436C88.1373 19.994 87.6095 19.4657 86.9607 19.4657H5.9124Z" fill="#333333"/>
<path d="M79.2295 27.1138H5.91292C5.19272 27.1138 4.60889 26.5293 4.60889 25.8082V25.6643C4.60889 24.9433 5.19272 24.3588 5.91292 24.3588H79.2295C79.9497 24.3588 80.5335 24.9433 80.5335 25.6643V25.8082C80.5335 26.5293 79.9497 27.1138 79.2295 27.1138Z" fill="#F0F0F0"/>
<path d="M79.229 27.2411H5.9124C5.12306 27.2411 4.48096 26.5983 4.48096 25.8079V25.664C4.48096 24.8737 5.12306 24.2308 5.9124 24.2308H79.229C80.0183 24.2308 80.6605 24.8737 80.6605 25.664V25.8079C80.6605 26.5983 80.0183 27.2411 79.229 27.2411ZM5.9124 24.4861C5.26361 24.4861 4.73592 25.0144 4.73592 25.664V25.8079C4.73592 26.4574 5.26361 26.9859 5.9124 26.9859H79.229C79.8778 26.9859 80.4056 26.4573 80.4056 25.8079V25.664C80.4056 25.0144 79.8778 24.4861 79.229 24.4861H5.9124Z" fill="#333333"/>
<path d="M43.2735 51.3629H42.5908V51.3186V46.8873L33.7828 50.4146V50.4102H29.3123C28.582 50.4102 27.9181 50.8755 27.6746 51.5623H27.6303L27.0991 51.7395C26.7008 51.8947 26.3688 52.1605 26.1033 52.4929C25.8598 52.8474 25.7271 53.2684 25.7271 53.6893C25.7271 54.5535 26.2803 55.351 27.0991 55.639L27.586 55.7942C27.7404 56.3685 28.1808 56.8325 28.7536 57.011L29.9319 61.5327C30.0425 61.8871 30.2638 62.2195 30.5514 62.4412C30.8612 62.6848 31.2375 62.8178 31.6137 62.7956C31.7686 62.7956 31.9235 62.7734 32.0563 62.7292C32.9638 62.4854 33.517 61.5549 33.2736 60.6243L32.3506 57.0572H33.7384L42.5907 60.6686V56.0601H43.0333C43.6529 56.0601 44.2505 55.8164 44.6932 55.3733C45.5923 54.473 45.6695 52.9328 44.5535 51.8668C44.2101 51.5386 43.7482 51.3629 43.2735 51.3629Z" fill="white"/>
<path d="M31.5273 62.9254C31.1636 62.9254 30.7903 62.7907 30.4728 62.541C30.1722 62.3094 29.9305 61.9554 29.8103 61.5703L28.6478 57.1098C28.0951 56.9132 27.6572 56.4567 27.4826 55.8948L27.0605 55.7603C26.1989 55.4573 25.5996 54.6062 25.5996 53.6891C25.5996 53.2453 25.7411 52.7946 25.9983 52.4203C26.2994 52.043 26.6523 51.7763 27.0529 51.6203L27.5833 51.4431C27.8658 50.7454 28.5505 50.2824 29.3122 50.2824H33.769L42.5433 46.7686C42.5826 46.7529 42.6271 46.7578 42.6621 46.7814C42.6972 46.8052 42.7181 46.8447 42.7181 46.8872V51.2352H43.2735C43.7917 51.2352 44.2775 51.4266 44.6415 51.7743C45.1909 52.2991 45.4982 52.9767 45.5064 53.6819C45.5143 54.346 45.2506 54.9954 44.7831 55.4634C44.3167 55.9304 43.6953 56.1875 43.0332 56.1875H42.718V60.6684C42.718 60.7109 42.6969 60.7507 42.6617 60.7744C42.6264 60.7979 42.5816 60.8026 42.5424 60.7865L33.7133 57.1845H32.5153L33.3971 60.5921C33.6542 61.5755 33.0676 62.5895 32.0895 62.8522C31.9538 62.8977 31.7867 62.923 31.6137 62.923C31.5851 62.9245 31.5563 62.9254 31.5273 62.9254ZM27.651 51.6895L27.1396 51.8602C26.7872 51.9977 26.4701 52.238 26.2029 52.5723C25.9803 52.8971 25.8546 53.2964 25.8546 53.6891C25.8546 54.4996 26.3838 55.2518 27.1414 55.5183L27.6247 55.6722C27.6661 55.6855 27.6978 55.7188 27.7092 55.7607C27.8524 56.293 28.2671 56.7253 28.7916 56.8887C28.8337 56.9019 28.8659 56.9357 28.8771 56.9784L30.0553 61.5001C30.1586 61.8303 30.3683 62.1385 30.6293 62.3396C30.9239 62.5713 31.2701 62.6863 31.6063 62.6677C31.7596 62.6675 31.8988 62.6469 32.0161 62.6077C32.8667 62.379 33.3722 61.5046 33.1503 60.6561L32.2273 57.0887C32.2174 57.0505 32.2258 57.0098 32.2499 56.9785C32.2741 56.9474 32.3113 56.929 32.3508 56.929H33.7385C33.7549 56.929 33.7713 56.9322 33.7866 56.9385L42.4633 60.4783V56.0596C42.4633 55.9891 42.5204 55.932 42.5908 55.932H43.0334C43.6274 55.932 44.1848 55.7014 44.6031 55.2827C45.0223 54.863 45.2587 54.2806 45.2517 53.6849C45.2442 53.0488 44.965 52.4359 44.4656 51.9588C44.1492 51.6567 43.7259 51.4902 43.2736 51.4902H42.5908C42.5204 51.4902 42.4633 51.4332 42.4633 51.3627V47.0755L33.8301 50.5328C33.8042 50.5432 33.7759 50.5446 33.7497 50.5375H29.3122C28.6309 50.5375 28.021 50.9665 27.7947 51.6046C27.7766 51.6555 27.7286 51.6896 27.6746 51.6896H27.651V51.6895Z" fill="#333333"/>
<path d="M93.1563 92.4895H68.1885C66.7383 92.4895 65.5586 91.3084 65.5586 89.8566V78.2247C65.5586 78.1542 65.6157 78.0972 65.6861 78.0972H93.1564C93.2268 78.0972 93.2839 78.1542 93.2839 78.2247V92.3619C93.2838 92.4325 93.2267 92.4895 93.1563 92.4895ZM65.8136 78.3523V89.8566C65.8136 91.1677 66.879 92.2342 68.1885 92.2342H93.0289V78.3523H65.8136Z" fill="#333333"/>
<path d="M93.1578 31.4598V78.2252H65.6875V33.9969C65.6875 32.5957 66.8222 31.4598 68.2217 31.4598H93.1578Z" fill="#B2CFFF"/>
<path d="M93.1564 78.3524H65.6861C65.6157 78.3524 65.5586 78.2954 65.5586 78.2249V33.9966C65.5586 32.5273 66.7526 31.3319 68.2203 31.3319H93.1563C93.2267 31.3319 93.2838 31.389 93.2838 31.4595V78.2248C93.2839 78.2954 93.2268 78.3524 93.1564 78.3524ZM65.8137 78.0972H93.029V31.5872H68.2204C66.8934 31.5872 65.8137 32.668 65.8137 33.9966V78.0972Z" fill="#333333"/>
<path d="M93.1579 81.2942V84.0492H70.2563C69.8075 84.0492 69.4438 83.685 69.4438 83.2358V82.1077C69.4438 81.6584 69.8076 81.2943 70.2563 81.2943H93.1579V81.2942Z" fill="#CECECE"/>
<path d="M93.2845 84.1767H70.2554C69.7371 84.1767 69.3154 83.7545 69.3154 83.2355V82.1075C69.3154 81.5884 69.7371 81.1663 70.2554 81.1663H93.2845V84.1767V84.1767ZM70.2553 81.4215C69.8776 81.4215 69.5703 81.7292 69.5703 82.1075V83.2355C69.5703 83.6136 69.8775 83.9214 70.2553 83.9214H93.0294V81.4216H70.2553V81.4215Z" fill="#333333"/>
<path d="M93.1579 86.3134V88.6036H70.2563C69.8075 88.6036 69.4438 88.2394 69.4438 87.7902V87.1268C69.4438 86.6775 69.8076 86.3134 70.2563 86.3134H93.1579V86.3134Z" fill="#F0F0F0"/>
<path d="M93.2845 88.7308H70.2554C69.7371 88.7308 69.3154 88.3087 69.3154 87.7898V87.1264C69.3154 86.6076 69.7371 86.1854 70.2554 86.1854H93.2845V88.7308V88.7308ZM70.2553 86.4405C69.8776 86.4405 69.5703 86.7481 69.5703 87.1263V87.7897C69.5703 88.1678 69.8775 88.4755 70.2553 88.4755H93.0294V86.4406H70.2553V86.4405Z" fill="#333333"/>
<path d="M94.6881 49.6663H80.5327V60.0188H94.6881V49.6663Z" fill="white"/>
<path d="M94.6882 60.146H80.5328C80.4624 60.146 80.4053 60.089 80.4053 60.0185V49.6659C80.4053 49.5954 80.4624 49.5383 80.5328 49.5383H94.6882C94.7587 49.5383 94.8158 49.5954 94.8158 49.6659V60.0185C94.8157 60.0889 94.7587 60.146 94.6882 60.146ZM80.6602 59.8908H94.5608V49.7935H80.6602V59.8908Z" fill="#333333"/>
<path d="M89.858 54.8494L86.896 57.815H85.3846L85.3633 57.7935L88.3041 54.8494L85.3633 51.9048L85.3978 51.8704H86.8828L89.858 54.8494Z" fill="white"/>
<path d="M86.8951 57.9423H85.3837C85.3498 57.9423 85.3173 57.9287 85.2933 57.9046L85.272 57.8831C85.2224 57.8333 85.2225 57.7527 85.2722 57.7029L88.123 54.8492L85.2722 51.9948C85.2224 51.9449 85.2224 51.8642 85.2722 51.8144L85.3067 51.7798C85.3306 51.7559 85.3631 51.7424 85.3968 51.7424H86.8819C86.9157 51.7424 86.9481 51.7559 86.972 51.7798L89.9473 54.759C89.9971 54.8088 89.9971 54.8896 89.9473 54.9394L86.9851 57.9049C86.9614 57.9288 86.929 57.9423 86.8951 57.9423ZM85.6488 57.687H86.8424L89.677 54.8492L86.8293 51.9977H85.6358L88.3935 54.759C88.4433 54.8088 88.4433 54.8896 88.3935 54.9394L85.6488 57.687Z" fill="#333333"/>
</svg>
