<svg viewBox="0 0 125 137" fill="none" xmlns="http://www.w3.org/2000/svg">
<path d="M118.357 136.586H11.6501C8.03719 136.586 5.1084 133.654 5.1084 130.036V11.4332C5.1084 7.8161 8.03719 4.88379 11.6501 4.88379H118.357C121.97 4.88379 124.898 7.81597 124.898 11.4332V130.036C124.898 133.654 121.969 136.586 118.357 136.586Z" fill="#F0F0F0"/>
<path d="M113.435 131.873H6.72875C3.11581 131.873 0.187012 128.941 0.187012 125.324V6.72045C0.187012 3.10333 3.11581 0.171021 6.72875 0.171021H113.435C117.048 0.171021 119.977 3.1032 119.977 6.72045V125.324C119.977 128.941 117.048 131.873 113.435 131.873Z" fill="white"/>
<path d="M113.435 132.043H6.72868C3.02764 132.043 0.0166016 129.028 0.0166016 125.323V6.71988C0.0166016 3.01456 3.02764 0 6.72868 0H113.435C117.136 0 120.147 3.01456 120.147 6.71988V125.323C120.147 129.028 117.136 132.043 113.435 132.043ZM6.72868 0.341089C3.21543 0.341089 0.357277 3.20257 0.357277 6.71988V125.323C0.357277 128.84 3.21557 131.702 6.72868 131.702H113.435C116.948 131.702 119.807 128.84 119.807 125.323V6.71988C119.807 3.20257 116.948 0.341089 113.435 0.341089H6.72868Z" fill="#333333"/>
<path d="M14.9714 18.7314H9.48889C7.15241 18.7314 5.2583 16.8351 5.2583 14.4959V9.00687C5.2583 6.66769 7.15241 4.77136 9.48889 4.77136H14.9716C17.308 4.77136 19.2021 6.66769 19.2021 9.00687V14.4959C19.202 16.8352 17.3079 18.7314 14.9714 18.7314Z" fill="#B2CFFF"/>
<path d="M14.9704 18.9013H9.48784C7.06113 18.9013 5.08691 16.9249 5.08691 14.4954V9.00635C5.08691 6.57684 7.06113 4.60034 9.48784 4.60034H14.9704C17.3971 4.60034 19.3713 6.57684 19.3713 9.00635V14.4954C19.3713 16.9249 17.3971 18.9013 14.9704 18.9013ZM9.48784 4.94156C7.24892 4.94156 5.42759 6.76511 5.42759 9.00648V14.4955C5.42759 16.7369 7.24906 18.5604 9.48784 18.5604H14.9704C17.2093 18.5604 19.0306 16.7367 19.0306 14.4955V9.00648C19.0306 6.76511 17.2093 4.94156 14.9704 4.94156H9.48784Z" fill="#333333"/>
<path d="M57.8874 10.2767H27.2782C26.335 10.2767 25.5703 9.51114 25.5703 8.56694V8.3445C25.5703 7.40016 26.335 6.63477 27.2782 6.63477H57.8874C58.8307 6.63477 59.5953 7.40029 59.5953 8.3445V8.56694C59.5952 9.51114 58.8305 10.2767 57.8874 10.2767Z" fill="#F0F0F0"/>
<path d="M57.8874 10.4466H27.2782C26.2425 10.4466 25.3999 9.60307 25.3999 8.56626V8.34395C25.3999 7.30713 26.2424 6.4635 27.2782 6.4635H57.8874C58.923 6.4635 59.7655 7.30713 59.7655 8.34395V8.56626C59.7655 9.60307 58.9229 10.4466 57.8874 10.4466ZM27.2782 6.80459C26.4303 6.80459 25.7406 7.49515 25.7406 8.34395V8.56626C25.7406 9.41506 26.4303 10.1056 27.2782 10.1056H57.8874C58.7352 10.1056 59.4248 9.41506 59.4248 8.56626V8.34395C59.4248 7.49515 58.7351 6.80459 57.8874 6.80459H27.2782Z" fill="#333333"/>
<path d="M50.612 16.9181H27.2787C26.3355 16.9181 25.5708 16.1525 25.5708 15.2083V14.9859C25.5708 14.0415 26.3355 13.2761 27.2787 13.2761H50.612C51.5553 13.2761 52.3199 14.0417 52.3199 14.9859V15.2083C52.3199 16.1525 51.5553 16.9181 50.612 16.9181Z" fill="#F0F0F0"/>
<path d="M50.6115 17.088H27.2781C26.2425 17.088 25.3999 16.2445 25.3999 15.2079V14.9854C25.3999 13.9486 26.2424 13.1051 27.2781 13.1051H50.6115C51.6471 13.1051 52.4897 13.9487 52.4897 14.9854V15.2079C52.4897 16.2447 51.6472 17.088 50.6115 17.088ZM27.2781 13.4461C26.4303 13.4461 25.7406 14.1366 25.7406 14.9854V15.2079C25.7406 16.0567 26.4303 16.7471 27.2781 16.7471H50.6115C51.4593 16.7471 52.1491 16.0567 52.1491 15.2079V14.9854C52.1491 14.1368 51.4593 13.4461 50.6115 13.4461H27.2781Z" fill="#333333"/>
<path d="M111.932 28.2333H6.96621C6.02295 28.2333 5.2583 27.4678 5.2583 26.5234V26.3738C5.2583 25.4295 6.02295 24.6639 6.96621 24.6639H111.932C112.875 24.6639 113.64 25.4295 113.64 26.3738V26.5234C113.64 27.4678 112.875 28.2333 111.932 28.2333Z" fill="#F0F0F0"/>
<path d="M111.931 28.4035H6.96503C5.92941 28.4035 5.08691 27.5599 5.08691 26.523V26.3734C5.08691 25.3366 5.92941 24.493 6.96503 24.493H111.931C112.966 24.493 113.809 25.3366 113.809 26.3734V26.523C113.809 27.5599 112.966 28.4035 111.931 28.4035ZM6.96503 24.8343C6.1172 24.8343 5.42759 25.5248 5.42759 26.3736V26.5232C5.42759 27.372 6.11734 28.0625 6.96503 28.0625H111.931C112.779 28.0625 113.468 27.372 113.468 26.5232V26.3736C113.468 25.5248 112.778 24.8343 111.931 24.8343H6.96503Z" fill="#333333"/>
<path d="M101.915 34.7376H6.96621C6.02295 34.7376 5.2583 33.972 5.2583 33.0278V32.8781C5.2583 31.9337 6.02295 31.1683 6.96621 31.1683H101.915C102.858 31.1683 103.623 31.9339 103.623 32.8781V33.0278C103.623 33.972 102.858 34.7376 101.915 34.7376Z" fill="#F0F0F0"/>
<path d="M101.914 34.9074H6.96503C5.92941 34.9074 5.08691 34.0638 5.08691 33.0271V32.8776C5.08691 31.8407 5.92941 30.9973 6.96503 30.9973H101.914C102.95 30.9973 103.792 31.8409 103.792 32.8776V33.0271C103.792 34.064 102.95 34.9074 101.914 34.9074ZM6.96503 31.3382C6.1172 31.3382 5.42759 32.0288 5.42759 32.8776V33.0271C5.42759 33.8758 6.11734 34.5664 6.96503 34.5664H101.914C102.762 34.5664 103.452 33.8759 103.452 33.0271V32.8776C103.452 32.0289 102.762 31.3382 101.914 31.3382H6.96503Z" fill="#333333"/>
<path d="M110.982 125.923H9.18179C7.27369 125.923 5.72119 124.369 5.72119 122.458V100.956C5.72119 100.861 5.79743 100.785 5.89153 100.785H114.272C114.367 100.785 114.443 100.861 114.443 100.956V122.458C114.443 124.369 112.89 125.923 110.982 125.923ZM6.06187 101.126V122.458C6.06187 124.181 7.46149 125.582 9.18179 125.582H110.982C112.703 125.582 114.102 124.181 114.102 122.458V101.126H6.06187Z" fill="#333333"/>
<path d="M114.273 43.6615V100.956H5.8916V43.6615C5.8916 41.8422 7.36466 40.3674 9.18187 40.3674H110.982C112.8 40.3674 114.273 41.8422 114.273 43.6615Z" fill="#B2CFFF"/>
<path d="M114.272 101.126H5.89153C5.79743 101.126 5.72119 101.05 5.72119 100.956V43.6609C5.72119 41.7504 7.27369 40.1963 9.18179 40.1963H110.982C112.89 40.1963 114.443 41.7504 114.443 43.6609V100.956C114.443 101.05 114.366 101.126 114.272 101.126ZM6.06187 100.785H114.102V43.661C114.102 41.9387 112.703 40.5373 110.982 40.5373H9.18179C7.46149 40.5373 6.06187 41.9386 6.06187 43.661V100.785V100.785Z" fill="#333333"/>
<path d="M65.2704 108.5H12.4626C11.5208 108.5 10.7573 107.736 10.7573 106.793V106.638C10.7573 105.695 11.5208 104.931 12.4626 104.931H65.2704C66.2121 104.931 66.9756 105.695 66.9756 106.638V106.793C66.9756 107.736 66.2121 108.5 65.2704 108.5Z" fill="#CECECE"/>
<path d="M65.2698 108.67H12.4619C11.4277 108.67 10.5864 107.828 10.5864 106.792V106.637C10.5864 105.602 11.4277 104.76 12.4619 104.76H65.2698C66.3039 104.76 67.1452 105.602 67.1452 106.637V106.792C67.1452 107.828 66.3039 108.67 65.2698 108.67ZM12.4619 105.101C11.6156 105.101 10.9271 105.79 10.9271 106.637V106.792C10.9271 107.64 11.6156 108.329 12.4619 108.329H65.2698C66.116 108.329 66.8046 107.64 66.8046 106.792V106.637C66.8046 105.79 66.116 105.101 65.2698 105.101H12.4619Z" fill="#333333"/>
<path d="M108.95 121.72H80.294C79.3522 121.72 78.5889 120.956 78.5889 120.013V117.436C78.5889 116.493 79.3523 115.729 80.294 115.729H108.95C109.892 115.729 110.656 116.493 110.656 117.436V120.013C110.656 120.956 109.892 121.72 108.95 121.72Z" fill="#CECECE"/>
<path d="M108.95 121.891H80.2934C79.2593 121.891 78.418 121.048 78.418 120.013V117.436C78.418 116.4 79.2593 115.558 80.2934 115.558H108.95C109.984 115.558 110.825 116.4 110.825 117.436V120.013C110.825 121.048 109.984 121.891 108.95 121.891ZM80.2934 115.899C79.4472 115.899 78.7586 116.588 78.7586 117.436V120.013C78.7586 120.86 79.4472 121.549 80.2934 121.549H108.95C109.796 121.549 110.485 120.86 110.485 120.013V117.436C110.485 116.588 109.796 115.899 108.95 115.899H80.2934Z" fill="#333333"/>
<path d="M46.0159 114.401H12.2392C11.4208 114.401 10.7573 113.737 10.7573 112.918C10.7573 112.099 11.4208 111.434 12.2392 111.434H46.0159C46.8343 111.434 47.4978 112.099 47.4978 112.918C47.4978 113.737 46.8343 114.401 46.0159 114.401Z" fill="#F0F0F0"/>
<path d="M46.0152 114.572H12.2385C11.3275 114.572 10.5864 113.83 10.5864 112.918C10.5864 112.006 11.3275 111.264 12.2385 111.264H46.0152C46.9262 111.264 47.6674 112.006 47.6674 112.918C47.6674 113.83 46.9262 114.572 46.0152 114.572ZM12.2385 111.605C11.5154 111.605 10.9271 112.194 10.9271 112.918C10.9271 113.642 11.5154 114.231 12.2385 114.231H46.0152C46.7384 114.231 47.3267 113.642 47.3267 112.918C47.3267 112.194 46.7384 111.605 46.0152 111.605H12.2385Z" fill="#333333"/>
<path d="M33.5783 121.72H12.2392C11.4208 121.72 10.7573 121.056 10.7573 120.237C10.7573 119.418 11.4208 118.753 12.2392 118.753H33.5783C34.3967 118.753 35.0601 119.418 35.0601 120.237C35.0601 121.056 34.3967 121.72 33.5783 121.72Z" fill="#F0F0F0"/>
<path d="M33.5776 121.89H12.2385C11.3275 121.89 10.5864 121.148 10.5864 120.236C10.5864 119.324 11.3275 118.583 12.2385 118.583H33.5776C34.4886 118.583 35.2297 119.324 35.2297 120.236C35.2297 121.148 34.4886 121.89 33.5776 121.89ZM12.2385 118.924C11.5154 118.924 10.9271 119.513 10.9271 120.236C10.9271 120.96 11.5154 121.549 12.2385 121.549H33.5776C34.3007 121.549 34.889 120.96 34.889 120.236C34.889 119.513 34.3007 118.924 33.5776 118.924H12.2385Z" fill="#333333"/>
<path d="M70.8456 66.0169H69.1995V65.9595V60.2185L57.7884 64.7883V64.7826H51.9968C51.0506 64.7826 50.1905 65.3853 49.8751 66.2752H49.8178L49.1297 66.5049C48.6136 66.7058 48.1835 67.0502 47.8395 67.4808C47.5241 67.9401 47.3521 68.4855 47.3521 69.031C47.3521 70.1505 48.0689 71.1839 49.1297 71.557L49.7605 71.758C49.9606 72.5021 50.5312 73.1032 51.2732 73.3344L52.7997 79.1925C52.9429 79.6518 53.2298 80.0823 53.6023 80.3694C54.0038 80.6851 54.4912 80.8575 54.9786 80.8288C55.1793 80.8288 55.3799 80.8001 55.552 80.7427C56.7276 80.427 57.4444 79.2213 57.1289 78.0157L55.9332 73.3941H57.7311L69.1997 78.0729V72.1024H69.7731C70.5758 72.1024 71.3499 71.7867 71.9235 71.2126C73.2882 69.8463 73.1914 67.3422 70.8603 66.0209C70.8557 66.0182 70.8507 66.0169 70.8456 66.0169Z" fill="white"/>
<path d="M54.8654 81.0018C54.3934 81.0018 53.9086 80.8268 53.4964 80.5027C53.1063 80.2023 52.7923 79.7425 52.6364 79.2426L51.131 73.466C50.4154 73.2108 49.8486 72.6197 49.6217 71.8922L49.0775 71.7189C47.959 71.3256 47.1812 70.2208 47.1812 69.0304C47.1812 68.4543 47.3648 67.8694 47.6986 67.3837C48.0894 66.894 48.5475 66.548 49.0675 66.3455L49.7526 66.1165C50.1199 65.2119 51.0083 64.6114 51.9965 64.6114H57.7698L69.1359 60.0597C69.1884 60.0388 69.2479 60.0453 69.2947 60.0769C69.3414 60.1087 69.3696 60.1615 69.3696 60.2181V65.8458H70.8453C70.8748 65.8458 70.9182 65.8573 70.9438 65.8717C72.0864 66.5194 72.7998 67.4958 72.9525 68.6213C73.0873 69.614 72.7475 70.6276 72.0434 71.3323C71.4381 71.9384 70.6316 72.2721 69.7726 72.2721H69.3694V78.072C69.3694 78.1288 69.3413 78.1819 69.2941 78.2136C69.2469 78.2452 69.1872 78.2513 69.1347 78.2299L57.697 73.5636H56.1525L57.2932 77.9718C57.6271 79.2485 56.8656 80.565 55.5954 80.9062C55.4193 80.9654 55.2025 80.998 54.9778 80.998C54.9404 81.0007 54.9029 81.0018 54.8654 81.0018ZM49.8447 66.4453L49.1828 66.6661C48.7274 66.8438 48.3171 67.1545 47.9717 67.5869C47.684 68.0065 47.5216 68.5226 47.5216 69.0304C47.5216 70.0784 48.2057 71.0511 49.1854 71.3954L49.8113 71.5948C49.8664 71.6124 49.909 71.6568 49.9241 71.713C50.1091 72.4012 50.6452 72.9597 51.323 73.1707C51.3792 73.1882 51.4224 73.2335 51.4372 73.2906L52.9637 79.1488C53.097 79.5754 53.3682 79.9736 53.7054 80.2333C54.0864 80.5329 54.5345 80.6823 54.9678 80.6576C55.1662 80.6573 55.3459 80.6305 55.4973 80.5799C56.5968 80.2842 57.2501 79.1542 56.9634 78.0578L55.7675 73.4359C55.7543 73.3848 55.7655 73.3306 55.7977 73.2888C55.83 73.2472 55.8797 73.2226 55.9325 73.2226H57.7304C57.7524 73.2226 57.7742 73.227 57.7946 73.2352L69.0285 77.8185V72.1015C69.0285 72.0072 69.1047 71.931 69.1988 71.931H69.7723C70.5403 71.931 71.2613 71.6328 71.8023 71.0912C72.4315 70.4612 72.7353 69.555 72.6148 68.667C72.478 67.6601 71.8368 66.7805 70.8077 66.1867H69.199C69.1049 66.1867 69.0286 66.1103 69.0286 66.0161V60.4696L57.8511 64.9459C57.8165 64.9598 57.7787 64.9618 57.7437 64.9522H51.9962C51.1156 64.9522 50.3273 65.5064 50.035 66.3313C50.0109 66.3994 49.9467 66.4449 49.8746 66.4449H49.8447V66.4453Z" fill="#333333"/>
</svg>
