<svg viewBox="0 0 108 95" fill="none" xmlns="http://www.w3.org/2000/svg">
<path d="M102.875 94.436H9.36924C6.88227 94.436 4.86621 92.4176 4.86621 89.9278V9.07525C4.86621 6.5854 6.88227 4.56702 9.36924 4.56702H102.875C105.362 4.56702 107.378 6.5854 107.378 9.07525V89.9278C107.378 92.4176 105.362 94.436 102.875 94.436Z" fill="#F0F0F0"/>
<path d="M98.6637 90.4046H5.1583C2.67133 90.4046 0.655273 88.3862 0.655273 85.8964V5.04388C0.655273 2.55403 2.67133 0.535645 5.1583 0.535645H98.6637C101.151 0.535645 103.167 2.55403 103.167 5.04388V85.8964C103.167 88.3862 101.151 90.4046 98.6637 90.4046Z" fill="white"/>
<path d="M98.6643 90.5214H5.15882C2.6112 90.5214 0.538574 88.4464 0.538574 85.8959V5.04355C0.538574 2.49298 2.6112 0.417969 5.15882 0.417969H98.6643C101.212 0.417969 103.285 2.49298 103.285 5.04355V85.8959C103.285 88.4464 101.212 90.5214 98.6643 90.5214ZM5.15882 0.652788C2.74046 0.652788 0.773012 2.6225 0.773012 5.04365V85.896C0.773012 88.3171 2.74046 90.2867 5.15882 90.2867H98.6643C101.083 90.2867 103.05 88.317 103.05 85.896V5.04365C103.05 2.6225 101.083 0.652788 98.6643 0.652788H5.15882Z" fill="#333333"/>
<path d="M14.015 16.419H7.90671C6.29845 16.419 4.99463 15.1137 4.99463 13.5036V7.38822C4.99463 5.7781 6.29845 4.47278 7.90671 4.47278H14.015C15.6233 4.47278 16.9271 5.7781 16.9271 7.38822V13.5036C16.9271 15.1138 15.6233 16.419 14.015 16.419Z" fill="#B2CFFF"/>
<path d="M14.0151 16.536H7.90685C6.23643 16.536 4.87744 15.1755 4.87744 13.5031V7.38775C4.87744 5.7154 6.23643 4.35486 7.90685 4.35486H14.0151C15.6855 4.35486 17.0445 5.7153 17.0445 7.38775V13.5031C17.0444 15.1755 15.6854 16.536 14.0151 16.536ZM7.90674 4.58966C6.36558 4.58966 5.11188 5.84492 5.11188 7.38775V13.5031C5.11188 15.0459 6.36558 16.3012 7.90674 16.3012H14.015C15.5562 16.3012 16.8099 15.0459 16.8099 13.5031V7.38775C16.8099 5.84492 15.5562 4.58966 14.015 4.58966H7.90674Z" fill="#333333"/>
<path d="M50.2601 9.18991H23.4627C22.812 9.18991 22.2847 8.66193 22.2847 8.01056V7.31473C22.2847 6.66336 22.812 6.13538 23.4627 6.13538H50.2601C50.9107 6.13538 51.4381 6.66336 51.4381 7.31473V8.01056C51.4381 8.66193 50.9107 9.18991 50.2601 9.18991Z" fill="#F0F0F0"/>
<path d="M50.2601 9.30695H23.4627C22.7485 9.30695 22.1675 8.72525 22.1675 8.01025V7.31452C22.1675 6.59952 22.7485 6.01782 23.4627 6.01782H50.2601C50.9743 6.01782 51.5553 6.59952 51.5553 7.31452V8.01025C51.5554 8.72525 50.9744 9.30695 50.2601 9.30695ZM23.4627 6.25242C22.8778 6.25242 22.4019 6.72883 22.4019 7.31442V8.01014C22.4019 8.59573 22.8778 9.07214 23.4627 9.07214H50.2601C50.845 9.07214 51.3209 8.59573 51.3209 8.01014V7.31442C51.3209 6.72883 50.845 6.25242 50.2601 6.25242H23.4627Z" fill="#333333"/>
<path d="M44.0271 14.7556H23.4627C22.812 14.7556 22.2847 14.2276 22.2847 13.5762V12.8805C22.2847 12.2292 22.812 11.7012 23.4627 11.7012H44.0271C44.6778 11.7012 45.2051 12.2292 45.2051 12.8805V13.5762C45.2051 14.2276 44.6778 14.7556 44.0271 14.7556Z" fill="#F0F0F0"/>
<path d="M44.0272 14.8728H23.4627C22.7485 14.8728 22.1675 14.291 22.1675 13.5761V12.8803C22.1675 12.1654 22.7485 11.5837 23.4627 11.5837H44.0272C44.7413 11.5837 45.3224 12.1654 45.3224 12.8803V13.5761C45.3224 14.291 44.7413 14.8728 44.0272 14.8728ZM23.4627 11.8184C22.8778 11.8184 22.4019 12.2949 22.4019 12.8803V13.5761C22.4019 14.1616 22.8778 14.638 23.4627 14.638H44.0272C44.6121 14.638 45.0878 14.1616 45.0878 13.5761V12.8803C45.0878 12.2949 44.612 11.8184 44.0272 11.8184H23.4627Z" fill="#333333"/>
<path d="M40.6681 23.6344H6.7361C6.08548 23.6344 5.55811 23.1064 5.55811 22.455V21.7593C5.55811 21.108 6.08548 20.58 6.7361 20.58H40.6681C41.3188 20.58 41.8461 21.108 41.8461 21.7593V22.455C41.8461 23.1063 41.3188 23.6344 40.6681 23.6344Z" fill="#F0F0F0"/>
<path d="M40.6678 23.7512H6.73564C6.02147 23.7512 5.44043 23.1695 5.44043 22.4545V21.7588C5.44043 21.0439 6.02147 20.4622 6.73564 20.4622H40.6677C41.3819 20.4622 41.9629 21.0439 41.9629 21.7588V22.4545C41.9629 23.1695 41.3819 23.7512 40.6678 23.7512ZM6.73564 20.6968C6.15073 20.6968 5.67487 21.1731 5.67487 21.7587V22.4544C5.67487 23.04 6.15073 23.5164 6.73564 23.5164H40.6677C41.2526 23.5164 41.7283 23.04 41.7283 22.4544V21.7587C41.7283 21.1731 41.2525 20.6968 40.6677 20.6968H6.73564Z" fill="#333333"/>
<path d="M94.7499 84.8388H9.0727C7.1201 84.8388 5.53711 83.2541 5.53711 81.2992V32.1087C5.53711 30.1538 7.11999 28.569 9.0727 28.569H94.7499C96.7025 28.569 98.2855 30.1537 98.2855 32.1087V81.2992C98.2854 83.254 96.7025 84.8388 94.7499 84.8388Z" fill="#9BB2D3"/>
<path d="M94.7495 84.9559H9.07225C7.05813 84.9559 5.41943 83.3153 5.41943 81.2987V32.1082C5.41943 30.0917 7.05813 28.4512 9.07225 28.4512H94.7495C96.7636 28.4512 98.4023 30.0916 98.4023 32.1082V81.2987C98.4022 83.3153 96.7636 84.9559 94.7495 84.9559ZM9.07225 28.686C7.18739 28.686 5.65387 30.2212 5.65387 32.1082V81.2987C5.65387 83.1858 7.18729 84.721 9.07225 84.721H94.7495C96.6343 84.721 98.1677 83.1858 98.1677 81.2987V32.1082C98.1677 30.2212 96.6343 28.686 94.7495 28.686H9.07225Z" fill="#333333"/>
<path d="M98.2855 36.882H5.53711V76.5255H98.2855V36.882Z" fill="#B2CFFF"/>
<path d="M98.285 76.6426H5.53665C5.47191 76.6426 5.41943 76.5901 5.41943 76.5252V36.8816C5.41943 36.8167 5.47191 36.7643 5.53665 36.7643H98.2851C98.3498 36.7643 98.4023 36.8168 98.4023 36.8816V76.5252C98.4022 76.5902 98.3497 76.6426 98.285 76.6426ZM5.65387 76.4079H98.1677V36.999H5.65387V76.4079Z" fill="#333333"/>
<path d="M51.9114 62.3514C55.027 62.3514 57.5527 59.8227 57.5527 56.7035C57.5527 53.5843 55.027 51.0557 51.9114 51.0557C48.7957 51.0557 46.27 53.5843 46.27 56.7035C46.27 59.8227 48.7957 62.3514 51.9114 62.3514Z" fill="white"/>
<path d="M51.9114 62.4685C48.7361 62.4685 46.1528 59.8822 46.1528 56.7033C46.1528 53.5244 48.7361 50.9381 51.9114 50.9381C55.0867 50.9381 57.67 53.5244 57.67 56.7033C57.6698 59.8822 55.0866 62.4685 51.9114 62.4685ZM51.9114 51.1729C48.8654 51.1729 46.3874 53.6538 46.3874 56.7033C46.3874 59.7528 48.8654 62.2337 51.9114 62.2337C54.9574 62.2337 57.4354 59.7528 57.4354 56.7033C57.4354 53.6538 54.9574 51.1729 51.9114 51.1729Z" fill="#333333"/>
<path d="M54.3232 56.7034L51.0813 59.9491L51.074 59.9418H50.5269V53.4583H51.0813L54.3232 56.7034Z" fill="#B2CFFF"/>
<path d="M51.0814 60.0661C51.0676 60.0661 51.0539 60.0638 51.0408 60.0589H50.5269C50.4621 60.0589 50.4097 60.0064 50.4097 59.9416V53.4579C50.4097 53.393 50.4621 53.3406 50.5269 53.3406H51.0814C51.1124 53.3406 51.1422 53.3529 51.1643 53.3749L54.4063 56.62C54.4282 56.642 54.4406 56.6718 54.4406 56.703C54.4406 56.7343 54.4282 56.764 54.4063 56.786L51.1643 60.0318C51.1414 60.0546 51.1114 60.0661 51.0814 60.0661ZM50.6441 59.8241H51.0401L54.1575 56.7029L51.0329 53.5752H50.6442V59.8241H50.6441Z" fill="#333333"/>
</svg>
