<svg viewBox="0 0 476 359" fill="none" xmlns="http://www.w3.org/2000/svg">
<path d="M405.624 356.304H35.002C25.1448 356.304 17.1538 348.312 17.1538 338.453V18.3146C17.1538 8.45623 25.1448 0.464325 35.002 0.464325H405.624C415.481 0.464325 423.472 8.45623 423.472 18.3146V338.453C423.472 348.312 415.481 356.304 405.624 356.304Z" fill="#F0F0F0"/>
<path d="M388.935 356.304H18.313C8.45581 356.304 0.464844 348.312 0.464844 338.453V18.3146C0.464844 8.45623 8.45581 0.464325 18.313 0.464325H388.935C398.792 0.464325 406.783 8.45623 406.783 18.3146V338.453C406.784 348.312 398.793 356.304 388.935 356.304Z" fill="white"/>
<path d="M388.936 356.769H18.3132C8.21509 356.769 0 348.553 0 338.453V18.3153C0.000762351 8.21606 8.21586 0 18.3132 0H388.936C399.033 0 407.249 8.21606 407.249 18.3153V338.453C407.249 348.552 399.033 356.769 388.936 356.769ZM18.3132 0.929415C8.72816 0.929415 0.929302 8.72842 0.929302 18.3153V338.453C0.929302 348.04 8.72739 355.839 18.3132 355.839H388.936C398.521 355.839 406.319 348.04 406.319 338.453V18.3153C406.319 8.72918 398.521 0.929415 388.936 0.929415H18.3132V0.929415Z" fill="#333333"/>
<path d="M53.4178 63.3542H29.2063C22.8316 63.3542 17.6636 58.1856 17.6636 51.8101V27.5965C17.6636 21.221 22.8316 16.0524 29.2063 16.0524H53.4178C59.7926 16.0524 64.9606 21.221 64.9606 27.5965V51.8109C64.9598 58.1864 59.7926 63.3542 53.4178 63.3542Z" fill="#B2CFFF"/>
<path d="M53.4173 63.8193H29.2058C22.5847 63.8193 17.1987 58.4327 17.1987 51.8109V27.5965C17.1987 20.9747 22.5855 15.5881 29.2058 15.5881H53.4173C60.0383 15.5881 65.4243 20.9747 65.4243 27.5965V51.8109C65.4251 58.4327 60.0383 63.8193 53.4173 63.8193ZM29.2065 16.5175C23.0978 16.5175 18.1288 21.4879 18.1288 27.5965V51.8109C18.1288 57.9196 23.0986 62.8899 29.2065 62.8899H53.418C59.5267 62.8899 64.4958 57.9196 64.4958 51.8109V27.5965C64.4958 21.4879 59.526 16.5175 53.418 16.5175H29.2065Z" fill="#333333"/>
<path d="M197.083 34.7314H90.8676C88.2894 34.7314 86.1982 32.6408 86.1982 30.0615V27.3068C86.1982 24.7275 88.2886 22.6368 90.8676 22.6368H197.083C199.662 22.6368 201.752 24.7275 201.752 27.3068V30.0615C201.752 32.6408 199.662 34.7314 197.083 34.7314Z" fill="#F0F0F0"/>
<path d="M197.083 35.1965H90.8676C88.037 35.1965 85.7339 32.8932 85.7339 30.0623V27.3076C85.7339 24.4766 88.037 22.1733 90.8676 22.1733H197.083C199.914 22.1733 202.217 24.4766 202.217 27.3076V30.0623C202.217 32.8932 199.914 35.1965 197.083 35.1965ZM90.8676 23.1019C88.5493 23.1019 86.6632 24.9882 86.6632 27.3068V30.0615C86.6632 32.3801 88.5493 34.2663 90.8676 34.2663H197.083C199.401 34.2663 201.287 32.3801 201.287 30.0615V27.3068C201.287 24.9882 199.401 23.1019 197.083 23.1019H90.8676V23.1019Z" fill="#333333"/>
<path d="M172.378 56.7698H90.8676C88.2894 56.7698 86.1982 54.6792 86.1982 52.0998V49.3451C86.1982 46.7658 88.2886 44.6752 90.8676 44.6752H172.377C174.956 44.6752 177.047 46.7658 177.047 49.3451V52.0998C177.047 54.6792 174.957 56.7698 172.378 56.7698Z" fill="#F0F0F0"/>
<path d="M172.378 57.2349H90.8676C88.037 57.2349 85.7339 54.9315 85.7339 52.1006V49.3451C85.7339 46.5142 88.037 44.2108 90.8676 44.2108H172.377C175.208 44.2108 177.511 46.5142 177.511 49.3451V52.0998C177.512 54.9315 175.209 57.2349 172.378 57.2349ZM90.8676 45.1403C88.5493 45.1403 86.6632 47.0265 86.6632 49.3451V52.0998C86.6632 54.4184 88.5493 56.3047 90.8676 56.3047H172.377C174.696 56.3047 176.582 54.4184 176.582 52.0998V49.3451C176.582 47.0265 174.696 45.1403 172.377 45.1403H90.8676Z" fill="#333333"/>
<path d="M159.058 91.9236H24.563C21.9847 91.9236 19.8936 89.833 19.8936 87.2537V84.499C19.8936 81.9204 21.9839 79.829 24.563 79.829H159.058C161.636 79.829 163.727 81.9197 163.727 84.499V87.2537C163.727 89.833 161.637 91.9236 159.058 91.9236Z" fill="#F0F0F0"/>
<path d="M159.058 92.3887H24.5629C21.7323 92.3887 19.4292 90.0854 19.4292 87.2545V84.4998C19.4292 81.6688 21.7323 79.3655 24.5629 79.3655H159.058C161.888 79.3655 164.191 81.6688 164.191 84.4998V87.2545C164.191 90.0854 161.888 92.3887 159.058 92.3887ZM24.5629 80.2941C22.2446 80.2941 20.3585 82.1804 20.3585 84.499V87.2537C20.3585 89.5723 22.2446 91.4585 24.5629 91.4585H159.058C161.376 91.4585 163.262 89.5723 163.262 87.2537V84.499C163.262 82.1804 161.376 80.2941 159.058 80.2941H24.5629Z" fill="#333333"/>
<path d="M373.421 334.265H33.8275C26.0881 334.265 19.814 327.99 19.814 320.25V125.478C19.814 117.738 26.0881 111.463 33.8275 111.463H373.421C381.161 111.463 387.435 117.738 387.435 125.478V320.249C387.435 327.99 381.161 334.265 373.421 334.265Z" fill="#9BB2D3"/>
<path d="M373.422 334.73H33.8277C25.8444 334.73 19.3491 328.234 19.3491 320.25V125.478C19.3491 117.494 25.8444 110.998 33.8277 110.998H373.422C381.405 110.998 387.9 117.494 387.9 125.478V320.249C387.899 328.234 381.405 334.73 373.422 334.73ZM33.8277 111.928C26.3567 111.928 20.2784 118.007 20.2784 125.479V320.25C20.2784 327.722 26.3567 333.801 33.8277 333.801H373.422C380.893 333.801 386.971 327.722 386.971 320.25V125.478C386.971 118.006 380.893 111.927 373.422 111.927H33.8277V111.928Z" fill="#333333"/>
<g opacity="0.6">
<path d="M214.077 221.003C219.967 226.894 219.967 236.443 214.077 242.33C208.187 248.221 198.64 248.221 192.75 242.33C186.86 236.44 186.86 226.891 192.75 221.003C198.64 215.115 208.19 215.112 214.077 221.003Z" fill="white"/>
<path d="M248.654 190.192H238.234L230.69 175.109H176.132L168.595 190.199L158.19 190.217C149.896 190.233 143.143 196.993 143.137 205.291L143.096 265.597C143.096 273.914 149.859 280.683 158.178 280.683H248.654C256.971 280.683 263.736 273.92 263.736 265.6V205.273C263.736 196.955 256.971 190.192 248.654 190.192ZM203.413 261.832C186.784 261.832 173.253 248.299 173.253 231.668C173.253 215.037 186.784 201.505 203.413 201.505C220.042 201.505 233.573 215.037 233.573 231.668C233.573 248.299 220.045 261.832 203.413 261.832Z" fill="white"/>
</g>
<path d="M417.38 127.548C412.833 126.865 408.239 128.457 405.087 131.805C400.084 136.828 379.258 155.17 379.258 155.17L349.048 149.123L344.82 162.632C344.82 162.632 380.502 173.73 383.085 172.774C385.668 171.817 405.088 158.719 405.088 158.719L417.38 127.548Z" fill="#B2EEDF"/>
<path d="M382.665 173.198C377.661 173.198 348.201 164.083 344.706 162.997C344.61 162.966 344.53 162.899 344.482 162.81C344.435 162.72 344.426 162.616 344.456 162.519L348.684 149.009C348.741 148.823 348.932 148.708 349.122 148.749L379.149 154.759C380.991 153.134 400.097 136.277 404.818 131.536C408.047 128.105 412.765 126.471 417.438 127.17C417.552 127.188 417.653 127.257 417.711 127.357C417.769 127.458 417.779 127.58 417.735 127.688L405.442 158.859C405.414 158.931 405.364 158.992 405.3 159.035C404.506 159.571 385.813 172.17 383.217 173.131C383.095 173.177 382.909 173.198 382.665 173.198ZM345.297 162.382C359.596 166.822 381.162 173.076 382.953 172.417C385.371 171.521 403.28 159.477 404.777 158.469L416.847 127.862C412.585 127.376 408.32 128.927 405.365 132.068C400.403 137.049 379.718 155.273 379.51 155.456C379.422 155.535 379.3 155.566 379.184 155.544L349.309 149.565L345.297 162.382Z" fill="#333333"/>
<path d="M390.852 106.567L173.392 133.723L184.984 226.575L402.444 199.419L390.852 106.567Z" fill="#B2CFFF"/>
<path d="M402.47 199.71L185.011 226.858C184.86 226.877 184.721 226.77 184.702 226.617L173.113 133.765C173.093 133.613 173.201 133.474 173.353 133.455L390.813 106.307C390.964 106.288 391.103 106.396 391.122 106.548L402.711 199.4C402.73 199.553 402.622 199.691 402.47 199.71ZM185.217 226.274L402.127 199.194L390.606 106.892L173.696 133.972L185.217 226.274Z" fill="#333333"/>
<path d="M287.912 179.914C295.274 179.914 301.241 173.945 301.241 166.583C301.241 159.221 295.274 153.253 287.912 153.253C280.551 153.253 274.583 159.221 274.583 166.583C274.583 173.945 280.551 179.914 287.912 179.914Z" fill="white"/>
<path d="M289.597 180.086C282.152 181.016 275.34 175.714 274.41 168.268C273.481 160.823 278.782 154.009 286.227 153.08C293.672 152.15 300.484 157.452 301.414 164.898C302.342 172.343 297.042 179.157 289.597 180.086ZM286.295 153.629C279.153 154.521 274.068 161.057 274.96 168.2C275.851 175.342 282.387 180.428 289.529 179.536C296.67 178.644 301.755 172.108 300.863 164.965C299.972 157.824 293.436 152.738 286.295 153.629Z" fill="#333333"/>
<path d="M293.566 165.877L286.914 174.428L286.895 174.413L285.612 174.573L283.717 159.387L285.017 159.225L293.566 165.877Z" fill="#B2CFFF"/>
<path d="M286.947 174.702C286.915 174.706 286.882 174.704 286.85 174.696L285.644 174.847C285.493 174.866 285.354 174.758 285.335 174.606L283.44 159.42C283.421 159.268 283.528 159.13 283.681 159.111L284.98 158.948C285.054 158.939 285.127 158.96 285.185 159.005L293.734 165.656C293.792 165.701 293.831 165.768 293.839 165.841C293.848 165.914 293.827 165.987 293.782 166.045L287.13 174.596C287.084 174.658 287.017 174.693 286.947 174.702ZM285.851 174.263L286.78 174.148L293.176 165.925L284.935 159.513L284.024 159.627L285.851 174.263Z" fill="#333333"/>
<path d="M340.638 126.027C341.436 131.907 337.316 137.32 331.437 138.118C325.557 138.915 320.145 134.795 319.347 128.914C318.55 123.034 322.67 117.621 328.55 116.823C328.552 116.823 328.554 116.823 328.556 116.823C334.433 116.03 339.842 120.15 340.638 126.027Z" fill="#B2CFFF"/>
<path d="M451.714 142.627C453.092 133.164 448.7 130.189 441.803 127.318C433.193 123.749 416.778 125.529 411.19 130.524L404.877 149.238C402.227 152.328 402.648 157.045 404.178 160.824C405.709 164.603 408.177 167.99 409.316 171.894C411.526 179.462 409.976 186.149 409.45 194.005C409.335 195.822 407.938 199.171 409.278 200.395C410.617 201.62 412.368 201.563 414.061 201.496C427.259 200.956 438.412 195.356 450.279 189.555C445.774 180.466 442.598 172.267 445.496 165.301C448.489 158.026 450.577 150.411 451.714 142.627Z" fill="#B2EEDF"/>
<path d="M412.927 201.907C411.566 201.907 410.16 201.72 409.019 200.677C407.913 199.666 408.355 197.631 408.745 195.836C408.895 195.142 409.038 194.487 409.07 193.98C409.19 192.175 409.366 190.426 409.535 188.734C410.1 183.093 410.633 177.765 408.95 172.001C408.297 169.76 407.169 167.639 406.079 165.588C405.288 164.099 404.47 162.56 403.825 160.966C401.928 156.283 402.196 151.834 404.539 149.046L410.829 130.402C410.85 130.339 410.887 130.284 410.937 130.239C416.697 125.091 433.218 123.347 441.95 126.967C448.59 129.73 453.554 132.642 452.092 142.682C450.952 150.491 448.851 158.149 445.849 165.447C443.153 171.927 445.676 179.411 450.622 189.386C450.667 189.477 450.674 189.582 450.641 189.678C450.608 189.775 450.538 189.853 450.447 189.898L449.606 190.309C438.002 195.985 427.042 201.347 414.077 201.877C413.701 201.891 413.316 201.907 412.927 201.907ZM411.518 130.742L405.238 149.359C405.222 149.406 405.198 149.448 405.167 149.486C402.968 152.049 402.731 156.234 404.532 160.681C405.162 162.237 405.971 163.759 406.753 165.23C407.861 167.315 409.006 169.472 409.682 171.786C411.406 177.694 410.866 183.093 410.293 188.809C410.124 190.495 409.95 192.238 409.831 194.029C409.795 194.592 409.647 195.275 409.491 195.997C409.144 197.591 408.752 199.398 409.536 200.113C410.771 201.243 412.437 201.178 414.046 201.114C426.852 200.591 437.742 195.263 449.272 189.624L449.768 189.381C444.84 179.384 442.369 171.824 445.145 165.155C448.123 157.917 450.207 150.318 451.338 142.572C452.72 133.075 447.988 130.305 441.658 127.671C433.339 124.224 417.073 125.893 411.518 130.742Z" fill="#333333"/>
<path d="M392.135 161.982L387.868 176.506C387.868 176.506 410.148 184.61 422.211 184.466C433.518 184.322 436.752 183.04 440.731 173.942C444.711 164.843 449.226 154.319 450.173 148.282C450.849 146.279 451.33 144.216 451.608 142.12C453.263 129.731 438.215 126.468 435.986 138.772L434.187 145.364C434.187 145.364 430.084 154.644 429.892 155.161C428.075 159.945 424.927 167.685 422.651 168.556C420.375 169.426 392.135 161.982 392.135 161.982Z" fill="#B2EEDF"/>
<path d="M421.897 184.848C409.832 184.848 387.959 176.944 387.737 176.863C387.548 176.795 387.445 176.591 387.502 176.398L391.769 161.874C391.827 161.677 392.034 161.56 392.231 161.614C403.533 164.593 420.927 168.81 422.514 168.199C423.59 167.788 425.682 165.168 429.536 155.025C429.728 154.506 433.671 145.589 433.84 145.209L435.619 138.67C436.76 132.368 441.106 130.134 444.907 130.733C449.097 131.391 452.873 135.532 451.987 142.17C451.706 144.283 451.218 146.38 450.535 148.403C449.624 154.246 445.365 164.301 441.081 174.093C437.002 183.421 433.595 184.702 422.217 184.847C422.111 184.848 422.004 184.848 421.897 184.848ZM388.335 176.268C391.172 177.274 411.144 184.23 422.207 184.084C433.173 183.945 436.391 182.916 440.383 173.788C444.647 164.041 448.886 154.038 449.798 148.221C450.481 146.183 450.958 144.134 451.232 142.069C452.055 135.916 448.613 132.087 444.789 131.486C441.357 130.946 437.419 133.01 436.363 138.84L434.557 145.464C433.12 148.723 430.4 154.893 430.252 155.293C426.986 163.887 424.615 168.213 422.789 168.911C420.544 169.779 396.597 163.548 392.398 162.445L388.335 176.268Z" fill="#333333"/>
<g opacity="0.2">
<path opacity="0.2" d="M410.196 182.724C410.158 184.404 410.857 186.016 412.109 187.135C413.354 188.236 414.843 189.026 416.452 189.441C421.524 190.875 426.965 190.137 431.472 187.403C435.911 184.695 438.933 179.748 440.158 174.725C440.158 174.725 437.355 178.256 435.508 180.093C433.202 182.42 430.158 183.871 426.898 184.197C421.283 184.992 415.6 183.853 410.052 182.714" fill="black"/>
</g>
<path d="M366.579 347.095L370.779 338.972L377.421 345.745L371.404 357.695L370.447 357.274C366.113 355.361 348.559 347.257 346.177 344.971C343.461 342.417 366.579 347.095 366.579 347.095Z" fill="#B2EEDF"/>
<path d="M371.404 358.077C371.353 358.077 371.3 358.066 371.251 358.045L370.294 357.623C366.988 356.163 348.45 347.68 345.913 345.246C345.502 344.859 345.537 344.543 345.639 344.346C346.394 342.886 358.82 345.141 366.373 346.664L370.44 338.797C370.497 338.688 370.601 338.614 370.722 338.595C370.842 338.577 370.965 338.618 371.052 338.705L377.695 345.479C377.808 345.595 377.837 345.772 377.763 345.917L371.745 357.867C371.678 358 371.544 358.077 371.404 358.077ZM346.416 344.672C346.423 344.679 346.431 344.686 346.438 344.693C348.732 346.895 365.938 354.866 370.601 356.926L371.225 357.2L376.958 345.817L370.876 339.615L366.918 347.269C366.84 347.42 366.669 347.501 366.503 347.468C357.582 345.663 347.885 344.172 346.416 344.672Z" fill="#333333"/>
<path d="M464.151 343.506L460.516 335.115L470.139 334.055L475.592 346.263L474.635 346.761C470.416 348.904 453.044 357.381 449.763 357.783C446.127 358.232 464.151 343.506 464.151 343.506Z" fill="#B2EEDF"/>
<path d="M449.617 358.172C449.201 358.172 449.023 357.976 448.947 357.8C448.304 356.294 457.799 348.212 463.687 343.393L460.167 335.267C460.119 335.156 460.126 335.029 460.186 334.924C460.247 334.819 460.354 334.749 460.475 334.737L470.098 333.675C470.27 333.659 470.42 333.748 470.487 333.899L475.94 346.107C476.022 346.291 475.947 346.507 475.767 346.6L474.811 347.097C471.584 348.736 453.279 357.735 449.809 358.159C449.74 358.169 449.676 358.172 449.617 358.172ZM461.072 335.438L464.501 343.354C464.569 343.511 464.524 343.694 464.392 343.802C457.433 349.487 450.228 355.967 449.691 357.407C449.699 357.406 449.707 357.405 449.716 357.404C452.85 357.02 469.914 348.731 474.462 346.421L475.097 346.09L469.904 334.464L461.072 335.438Z" fill="#333333"/>
<path d="M463.564 342.818L426.238 288.899C421.647 272.338 412.138 215.024 412.138 215.024L437.613 216.938C437.613 216.938 441.536 258.796 447.696 280.362L472.261 338.806" fill="#333333"/>
<path d="M450.279 189.556C450.891 189.556 455.349 206.777 449.915 217.215C449.379 218.23 445.476 223.913 445.476 223.913C431.595 240.283 412.52 265.505 408.588 273.81C400.533 290.935 373.594 353.199 373.594 353.199L365.443 347.837L387.867 268.538L408.588 200.836L450.279 189.556Z" fill="#333333"/>
<path d="M385.122 172.688C381.751 172.417 378.397 171.957 375.077 171.31C370.992 170.354 371.059 169.952 371.251 169.493C371.749 168.249 378.502 170.957 377.364 169.493C376.226 168.029 368.754 167.158 369.319 165.886C370.055 164.221 377.087 167.187 377.69 167.398C378.293 167.608 378.598 166.718 378.043 166.556C377.23 166.336 368.812 163.752 369.529 162.116C369.921 161.159 371.443 162.116 371.443 162.116C371.443 162.116 379.153 165.12 379.469 164.336C379.785 163.551 375.307 161.618 373.729 161.082C372.15 160.546 371.816 159.599 372.591 159.111C373.117 158.777 377.91 160.308 379.431 160.881C380.952 161.455 385.113 163.081 383.679 160.594C382.244 158.107 382.129 155.696 382.511 154.978C382.894 154.261 384.004 154.615 384.099 155.504C384.294 156.452 384.616 157.369 385.056 158.231C385.386 158.935 385.828 159.582 386.367 160.145C386.836 160.632 387.266 161.044 387.658 161.407L391.073 164.622L388.701 172.983L385.122 172.688Z" fill="white"/>
<path d="M388.982 173.39L385.091 173.069C381.72 172.798 378.326 172.332 375.005 171.685C371.865 170.95 371.117 170.54 370.882 170.081C370.723 169.77 370.842 169.484 370.899 169.346C371.271 168.418 373.054 168.792 375.115 169.227C375.695 169.349 376.43 169.504 376.878 169.549C376.198 169.019 374.406 168.505 372.937 168.082C370.686 167.435 369.291 167.004 368.976 166.329C368.885 166.134 368.882 165.928 368.969 165.732C369.528 164.466 372.147 164.828 377.457 166.901C377.632 166.969 377.755 167.018 377.815 167.039C377.881 167.062 377.902 167.042 377.915 167.028C377.948 166.994 377.957 166.94 377.951 166.923C377.866 166.903 370.125 164.674 369.212 162.766C369.046 162.42 369.103 162.138 369.18 161.964C369.299 161.671 369.52 161.461 369.814 161.367C370.554 161.13 371.536 161.725 371.645 161.794C374.51 162.904 377.92 164.024 378.969 164.09C378.289 163.417 375.356 162.038 373.605 161.444C372.544 161.084 371.891 160.507 371.815 159.861C371.766 159.44 371.974 159.05 372.386 158.79C373.258 158.234 379.501 160.503 379.564 160.526L379.687 160.572C382.873 161.778 383.475 161.611 383.582 161.482C383.602 161.459 383.622 161.262 383.346 160.786C381.866 158.22 381.713 155.661 382.172 154.799C382.41 154.354 382.869 154.136 383.374 154.236C383.957 154.349 384.41 154.854 384.475 155.464C384.657 156.343 384.968 157.227 385.393 158.058C385.71 158.738 386.128 159.348 386.639 159.882C387.151 160.414 387.612 160.848 387.914 161.129L391.501 164.504L388.982 173.39ZM372.09 169.528C371.843 169.528 371.665 169.559 371.602 169.638C371.577 169.699 371.564 169.737 371.564 169.752C371.621 169.856 372.095 170.22 375.164 170.939C378.445 171.578 381.81 172.039 385.152 172.308H385.153L388.418 172.578L390.642 164.741L387.395 161.685C387.089 161.4 386.617 160.957 386.09 160.409C385.521 159.814 385.057 159.136 384.709 158.392C384.258 157.513 383.926 156.563 383.724 155.581C383.683 155.218 383.44 155.025 383.23 154.984C383.108 154.96 382.945 154.973 382.846 155.157C382.582 155.651 382.542 157.864 384.007 160.404C384.156 160.662 384.61 161.449 384.163 161.975C383.571 162.672 381.908 162.227 379.417 161.285L379.294 161.239C377.443 160.54 373.33 159.294 372.754 159.453C372.632 159.535 372.557 159.649 372.572 159.771C372.603 160.039 373.011 160.437 373.85 160.722C374.672 161.001 379.257 162.781 379.796 163.954C379.901 164.181 379.868 164.365 379.821 164.478C379.686 164.818 379.365 165.613 371.303 162.471C370.986 162.282 370.361 161.99 370.046 162.093C369.992 162.11 369.929 162.144 369.881 162.26C369.868 162.29 369.849 162.333 369.898 162.436C370.524 163.746 376.573 165.762 378.141 166.187C378.432 166.272 378.631 166.479 378.694 166.756C378.762 167.058 378.653 167.389 378.416 167.6C378.182 167.808 377.87 167.863 377.562 167.757C377.499 167.735 377.367 167.683 377.179 167.61C370.515 165.008 369.751 165.845 369.666 166.039C369.811 166.389 371.9 166.99 373.147 167.348C375.155 167.925 377.051 168.47 377.664 169.257C377.947 169.621 377.892 169.88 377.797 170.033C377.511 170.489 376.767 170.353 374.958 169.972C374.258 169.825 372.85 169.528 372.09 169.528Z" fill="#333333"/>
<path d="M427.961 81.9204C426.746 80.0067 424.201 79.2511 421.887 79.2801C415.272 79.5454 409.687 84.2794 408.34 90.7609C407.881 93.354 408.149 96.0805 407.384 98.5775C406.688 100.355 405.762 102.035 404.628 103.571C403.492 105.105 402.702 106.868 402.313 108.738C401.944 110.654 402.685 112.614 404.227 113.809C401.765 116.301 401.789 120.318 404.282 122.78C405.742 124.222 407.811 124.869 409.832 124.515C411.22 124.276 412.703 123.558 413.965 124.247C414.55 124.65 415.07 125.141 415.505 125.701C417.419 127.662 420.614 127.979 423.158 126.993C425.687 125.87 427.806 123.992 429.224 121.616C429.625 121.013 430.18 120.305 430.869 120.373C431.281 120.475 431.658 120.686 431.96 120.985C434.756 123.19 438.81 122.71 441.015 119.914C442.946 117.464 442.847 113.983 440.78 111.647C443.085 110.912 444.89 109.104 445.621 106.797C446.308 104.5 446.214 102.04 445.353 99.8027C444.148 96.483 441.757 93.7657 439.412 91.1345C437.269 88.7138 436.638 84.9923 434.495 82.5815C433.525 81.2441 432.105 80.2995 430.497 79.9213C428.897 79.7856 427.295 80.1432 425.905 80.9453" fill="#333333"/>
<path d="M423.149 83.0687C429.77 83.0687 435.137 88.4355 435.137 95.0565C435.137 95.0985 435.137 95.1396 435.136 95.1816L434.743 127.951C434.555 132.205 430.954 135.502 426.7 135.314C426.661 135.313 426.622 135.31 426.583 135.308C422.068 135.213 418.394 131.72 418.385 127.501C418.385 123.071 418.328 117.559 418.328 117.559C418.328 117.559 412.531 117.455 411.392 110.02C411.085 108.106 411.066 101.285 411.124 94.9513C411.182 88.3714 416.531 83.0679 423.111 83.0687H423.149Z" fill="white"/>
<path d="M427.049 135.703C426.927 135.703 426.806 135.701 426.683 135.695L426.562 135.689C421.859 135.589 418.014 131.917 418.003 127.501C418.003 123.753 417.961 119.179 417.95 117.906C416.605 117.726 412.019 116.634 411.015 110.079C410.758 108.472 410.667 103.381 410.743 94.949C410.802 88.1885 416.351 82.6882 423.111 82.6882L423.15 83.0695V82.6882C426.453 82.6882 429.559 83.9745 431.896 86.3106C434.232 88.6467 435.518 91.7529 435.518 95.0565L435.518 95.1884L435.125 127.955C435.03 130.127 434.099 132.12 432.504 133.58C431 134.956 429.075 135.703 427.049 135.703ZM423.11 83.4499C416.767 83.4499 411.561 88.6109 411.504 94.9551C411.429 103.227 411.52 108.415 411.768 109.961C412.842 116.974 418.111 117.173 418.334 117.179C418.541 117.183 418.706 117.35 418.708 117.556C418.709 117.611 418.765 123.12 418.765 127.501C418.774 131.504 422.285 134.836 426.591 134.928L426.718 134.934C428.66 135.018 430.545 134.34 431.989 133.018C433.433 131.696 434.276 129.89 434.361 127.934L434.755 95.0573C434.755 91.9572 433.547 89.0424 431.355 86.8504C429.163 84.6584 426.249 83.4514 423.149 83.4514H423.11V83.4499Z" fill="#333333"/>
<path d="M412.865 99.4863C412.865 100.015 413.293 100.443 413.821 100.443C414.315 100.445 414.729 100.073 414.778 99.5824C414.778 99.054 414.35 98.6255 413.821 98.6255C413.328 98.6232 412.914 98.996 412.865 99.4863Z" fill="#333333"/>
<path d="M423.139 99.4863C423.139 100.015 423.568 100.443 424.096 100.443C424.591 100.475 425.019 100.099 425.051 99.6037C425.052 99.5961 425.052 99.5892 425.053 99.5816C425.053 99.0532 424.624 98.6248 424.096 98.6248C423.603 98.6232 423.189 98.9961 423.139 99.4863Z" fill="#333333"/>
<path d="M422.708 95.7557C422.804 96.0332 423.838 95.909 425.043 96.0523C426.248 96.1956 427.215 96.5212 427.377 96.2726C427.539 96.0241 427.282 95.8899 426.889 95.6223C426.364 95.286 425.768 95.0764 425.148 95.01C424.534 94.9353 423.909 95.0108 423.331 95.2304C422.881 95.4012 422.661 95.6596 422.708 95.7557Z" fill="#333333"/>
<path d="M413.027 95.4682C413.209 95.6977 413.917 95.4682 414.769 95.4682C415.62 95.4682 416.338 95.6214 416.51 95.382C416.682 95.1426 416.462 95.0283 416.156 94.8079C415.29 94.2674 414.184 94.3017 413.353 94.8941C413.046 95.1144 412.951 95.3531 413.027 95.4682Z" fill="#333333"/>
<path d="M437.823 94.9803C437.297 90.4743 435.174 85.9294 431.299 83.5567C427.913 81.4706 424.44 81.0025 421.073 82.8392C418.201 82.4443 415.304 83.3531 413.171 85.3171C411.001 87.3963 409.645 90.1815 409.345 93.1718C409.069 96.1499 409.533 99.1509 410.694 101.907L411.268 94.3681C415.094 92.7227 419.361 89.4793 420.834 85.5375C422.362 90.9531 426.661 95.1427 432.113 96.5304C431.382 101.016 433.064 105.555 436.543 108.48C437.479 104.041 438.35 99.4863 437.823 94.9803Z" fill="#333333"/>
<path d="M432.887 99.4863C433.471 102.357 432.476 105.304 431.749 108.154C431.022 111.005 430.582 114.211 432.113 116.765C432.666 117.411 433.025 118.201 433.146 119.043C432.986 119.783 432.726 120.498 432.371 121.167C432.043 122.555 432.641 123.996 433.854 124.745C435.071 125.452 436.514 125.662 437.882 125.328C439.216 124.982 440.503 124.467 441.708 123.797L445.334 121.999C445.885 121.757 446.398 121.435 446.854 121.042C447.555 120.296 448.016 119.355 448.175 118.344C448.955 114.43 448.274 110.366 446.261 106.92C444.348 103.475 445.19 97.7639 441.851 95.6497" fill="#333333"/>
<path d="M418.936 98.2733C418.835 98.2359 417.986 100.22 417.038 102.705C416.81 103.318 416.592 103.902 416.385 104.46C416.297 104.721 416.148 105.016 416.264 105.36C416.325 105.532 416.493 105.656 416.64 105.696C416.787 105.741 416.916 105.744 417.03 105.751C417.94 105.802 418.505 105.808 418.509 105.757" fill="white"/>
<path d="M418.126 106.179C417.854 106.179 417.491 106.158 417.008 106.132C416.861 106.124 416.706 106.116 416.528 106.061C416.25 105.985 416.001 105.759 415.905 105.488C415.761 105.064 415.889 104.709 415.984 104.451L416.681 102.572C418.534 97.7152 418.68 97.7716 419.07 97.9172C419.267 97.9912 419.368 98.2108 419.294 98.4082C419.269 98.4731 419.228 98.528 419.179 98.5691C419.005 98.8535 418.354 100.329 417.395 102.841L416.701 104.711C416.619 104.935 416.572 105.081 416.625 105.238C416.636 105.269 416.695 105.317 416.741 105.329C416.84 105.359 416.921 105.363 417.017 105.369C417.953 105.421 418.265 105.414 418.36 105.406C418.413 105.383 418.481 105.372 418.536 105.377C418.746 105.392 418.903 105.575 418.889 105.785C418.867 106.089 418.697 106.179 418.126 106.179Z" fill="#333333"/>
<path d="M418.425 111.722C417.583 111.513 416.576 110.762 416.24 108.451C416.223 108.336 416.259 108.221 416.339 108.136C416.417 108.052 416.53 108.008 416.646 108.016L422.366 108.441C422.469 108.45 422.564 108.497 422.63 108.576C422.696 108.654 422.728 108.756 422.718 108.859C422.597 110.079 420.772 111.752 419.069 111.791C418.879 111.796 418.658 111.78 418.425 111.722ZM417.078 108.813C417.314 109.929 417.849 111.054 419.052 111.029C420.189 111.003 421.444 109.959 421.837 109.166L417.078 108.813Z" fill="#333333"/>
<path d="M407.214 143.576C407.033 143.32 406.701 143.222 406.411 143.342C405.725 142.364 404.124 140.063 404.025 139.765C403.9 139.392 409.066 131.941 409.261 131.66C409.267 131.651 409.271 131.648 409.279 131.641L412.84 128.252C412.857 128.236 412.874 128.225 412.896 128.218C413.235 128.101 416.237 127.115 416.954 128.609C417.715 130.194 413.086 140.969 412.865 141.16C412.683 141.316 408.642 142.988 407.214 143.576Z" fill="#B2EEDF"/>
</svg>
