<svg xmlns="http://www.w3.org/2000/svg" viewBox="0 0 1200 628"><defs><style>.cls-1{fill:#3b5998;}.cls-2{fill:#fff;}</style></defs><title>ad-placements</title><g id="Layer_2" data-name="Layer 2"><rect class="cls-1" width="1200" height="628"/><path class="cls-2" d="M456.92,235.46V199l-31.7-50.11h20.48l20.36,34.23,20-34.23h20.13l-31.81,50.23v36.3Z"/><path class="cls-2" d="M511.28,192.73q0-13.22,4-22.19a40.72,40.72,0,0,1,8.06-11.86,33.69,33.69,0,0,1,11.18-7.79,47.51,47.51,0,0,1,18.65-3.42q19.12,0,30.6,11.86t11.48,33q0,21-11.39,32.79t-30.46,11.83q-19.3,0-30.69-11.78T511.28,192.73Zm18-.59q0,14.7,6.79,22.28a23.34,23.34,0,0,0,34.38.06q6.7-7.53,6.7-22.58,0-14.87-6.52-22.19t-17.32-7.32q-10.8,0-17.41,7.41T529.29,192.14Z"/><path class="cls-2" d="M608.73,148.93H626.2V195.8q0,11.16.65,14.46a14,14,0,0,0,5.34,8.53q4.22,3.22,11.54,3.22t11.21-3a12,12,0,0,0,4.54-7.47,97.44,97.44,0,0,0,.77-14.7V148.93h17.47v45.45q0,15.58-1.42,22a24.36,24.36,0,0,1-5.22,10.86,26.38,26.38,0,0,1-10.18,7.05q-6.37,2.63-16.64,2.63-12.4,0-18.8-2.86a26.87,26.87,0,0,1-10.12-7.44,23.83,23.83,0,0,1-4.9-9.59q-1.71-7.44-1.71-22Z"/><path class="cls-2" d="M696.2,235.46V148.93H733q13.87,0,20.16,2.33a19.89,19.89,0,0,1,10.06,8.29A24.93,24.93,0,0,1,767,173.19q0,9.74-5.73,16.08t-17.12,8a40.81,40.81,0,0,1,9.36,7.26q3.69,4,9.95,14L774,235.46H753.1l-12.63-18.83q-6.73-10.09-9.21-12.72a13.41,13.41,0,0,0-5.25-3.6,28.79,28.79,0,0,0-8.79-1h-3.54v36.12Zm17.47-49.93H726.6q12.57,0,15.7-1.06a9.41,9.41,0,0,0,4.9-3.66,11.26,11.26,0,0,0,1.77-6.49,10.38,10.38,0,0,0-2.33-7.05,10.7,10.7,0,0,0-6.58-3.39q-2.12-.29-12.75-.3H713.67Z"/><path class="cls-2" d="M432.81,348.84V271.26h15.66v77.58Z"/><path class="cls-2" d="M463.19,348.84V271.26h23.44l14.08,52.92,13.92-52.92h23.5v77.58H523.57V287.77l-15.4,61.07H493.09l-15.35-61.07v61.07Z"/><path class="cls-2" d="M623.63,348.84h-17l-6.77-17.62h-31l-6.4,17.62H545.79L576,271.26h16.56Zm-28.84-30.69L584.1,289.36l-10.48,28.79Z"/><path class="cls-2" d="M668,320.32V307.24h33.76v30.9q-4.92,4.76-14.26,8.39a51.92,51.92,0,0,1-18.92,3.63q-12.17,0-21.22-5.11a32.47,32.47,0,0,1-13.6-14.61,47.19,47.19,0,0,1-4.55-20.66,44.66,44.66,0,0,1,5.08-21.54,34.22,34.22,0,0,1,14.87-14.45q7.46-3.86,18.57-3.86,14.45,0,22.57,6.06a27.37,27.37,0,0,1,10.45,16.75l-15.56,2.91a16.43,16.43,0,0,0-6.16-9,18.64,18.64,0,0,0-11.3-3.31q-10.27,0-16.33,6.51t-6.06,19.32q0,13.81,6.14,20.72t16.09,6.91a27,27,0,0,0,9.87-1.93,33.81,33.81,0,0,0,8.49-4.68v-9.84Z"/><path class="cls-2" d="M716.24,348.84V271.26h57.52v13.12H731.9v17.2h38.95v13.07H731.9v21.11h43.34v13.07Z"/><path class="cls-2" d="M434.87,479.76v-92.5h18.68v36.41h36.59V387.27h18.68v92.5H490.14V439.32H453.54v40.44Z"/><path class="cls-2" d="M528.12,479.76v-92.5H596.7v15.65H546.8v20.51h46.44V439H546.8v25.17h51.67v15.58Z"/><path class="cls-2" d="M614.37,479.76v-92.5h39.31q14.83,0,21.55,2.49A21.26,21.26,0,0,1,686,398.62a26.65,26.65,0,0,1,4,14.57q0,10.41-6.12,17.19t-18.3,8.55a43.62,43.62,0,0,1,10,7.76q3.94,4.23,10.63,15l11.29,18H675.19l-13.5-20.13q-7.19-10.79-9.84-13.6a14.34,14.34,0,0,0-5.62-3.85q-3-1-9.4-1H633v38.61ZM633,426.38h13.82q13.44,0,16.78-1.14a10.06,10.06,0,0,0,5.24-3.91,12,12,0,0,0,1.89-6.94,11.09,11.09,0,0,0-2.49-7.54,11.44,11.44,0,0,0-7-3.63q-2.27-.31-13.63-.32H633Z"/><path class="cls-2" d="M707.62,479.76v-92.5h68.58v15.65H726.3v20.51h46.44V439H726.3v25.17H778v15.58Z"/></g></svg>