<svg xmlns="http://www.w3.org/2000/svg" viewBox="0 0 300 300"><defs><style>.cls-1{fill:#4967a9;}.cls-2{fill:#fff;}</style></defs><title>ad-placements</title><g id="Layer_2" data-name="Layer 2"><rect class="cls-1" width="300" height="300" rx="0.2" ry="0.2"/><path class="cls-2" d="M62.54,135.73v-23l-20-31.63H55.46l12.85,21.61L80.91,81.1H93.62L73.54,112.81v22.92Z"/><path class="cls-2" d="M95.34,108.75a34.75,34.75,0,0,1,2.5-14,25.73,25.73,0,0,1,5.09-7.49A21.27,21.27,0,0,1,110,82.33a30,30,0,0,1,11.77-2.16q12.07,0,19.32,7.49t7.25,20.83q0,13.23-7.19,20.7t-19.23,7.47q-12.18,0-19.37-7.43T95.34,108.75Zm11.36-.37q0,9.28,4.29,14.07a14.73,14.73,0,0,0,21.7,0q4.23-4.75,4.23-14.25t-4.12-14a15.26,15.26,0,0,0-21.93.06Q106.7,98.95,106.7,108.38Z"/><path class="cls-2" d="M155.33,81.1h11v29.59a61.33,61.33,0,0,0,.41,9.13,8.84,8.84,0,0,0,3.37,5.38,11.74,11.74,0,0,0,7.28,2q4.69,0,7.08-1.92a7.59,7.59,0,0,0,2.87-4.71,61.55,61.55,0,0,0,.48-9.28V81.1h11v28.69q0,9.84-.89,13.9a15.38,15.38,0,0,1-3.3,6.86,16.65,16.65,0,0,1-6.43,4.45,28,28,0,0,1-10.51,1.66q-7.83,0-11.87-1.81a17,17,0,0,1-6.39-4.69,15,15,0,0,1-3.09-6.05,66.32,66.32,0,0,1-1.08-13.86Z"/><path class="cls-2" d="M209,135.73V81.1h23.21q8.76,0,12.72,1.47a12.56,12.56,0,0,1,6.35,5.24,15.75,15.75,0,0,1,2.38,8.61,14.58,14.58,0,0,1-3.61,10.15q-3.61,4-10.81,5a25.76,25.76,0,0,1,5.91,4.58,62.28,62.28,0,0,1,6.28,8.87l6.67,10.66H244.94l-8-11.89a77.23,77.23,0,0,0-5.81-8,8.47,8.47,0,0,0-3.32-2.27,18.19,18.19,0,0,0-5.55-.61H220v22.8Zm11-31.52h8.16q7.94,0,9.91-.67a5.94,5.94,0,0,0,3.09-2.31,7.11,7.11,0,0,0,1.12-4.1,6.55,6.55,0,0,0-1.47-4.45,6.75,6.75,0,0,0-4.15-2.14q-1.34-.19-8-.19H220Z"/><path class="cls-2" d="M46.22,218.89V164.22H57.35V209.6H85v9.29Z"/><path class="cls-2" d="M87.62,191.67a35.05,35.05,0,0,1,2.52-14.14A25.94,25.94,0,0,1,95.27,170a21.46,21.46,0,0,1,7.12-5,30.27,30.27,0,0,1,11.88-2.18q12.18,0,19.49,7.56t7.31,21q0,13.35-7.26,20.89t-19.4,7.54q-12.29,0-19.55-7.5T87.62,191.67Zm11.47-.38q0,9.36,4.32,14.19a14.86,14.86,0,0,0,21.9,0q4.27-4.79,4.27-14.38T125.42,177a15.39,15.39,0,0,0-22.13.06Q99.09,181.78,99.08,191.29Z"/><path class="cls-2" d="M173.87,198.63v-9.29h24v22a30.19,30.19,0,0,1-10.13,6,36.89,36.89,0,0,1-13.44,2.58,30.16,30.16,0,0,1-15.08-3.63,23.07,23.07,0,0,1-9.66-10.38,33.53,33.53,0,0,1-3.23-14.68,31.73,31.73,0,0,1,3.61-15.3,24.31,24.31,0,0,1,10.56-10.26,28.51,28.51,0,0,1,13.2-2.74q10.26,0,16,4.3a19.44,19.44,0,0,1,7.43,11.9l-11.05,2.07a11.68,11.68,0,0,0-4.38-6.41,13.24,13.24,0,0,0-8-2.35q-7.29,0-11.6,4.62t-4.3,13.72q0,9.81,4.36,14.72a14.56,14.56,0,0,0,11.43,4.91,19.16,19.16,0,0,0,7-1.37,24,24,0,0,0,6-3.33v-7Z"/><path class="cls-2" d="M204.32,191.67a35.05,35.05,0,0,1,2.52-14.14A25.93,25.93,0,0,1,212,170a21.45,21.45,0,0,1,7.12-5A30.27,30.27,0,0,1,231,162.83q12.18,0,19.49,7.56t7.31,21q0,13.35-7.26,20.89t-19.4,7.54q-12.29,0-19.55-7.5T204.32,191.67Zm11.47-.38q0,9.36,4.32,14.19a14.86,14.86,0,0,0,21.9,0q4.27-4.79,4.27-14.38T242.13,177a15.39,15.39,0,0,0-22.13.06Q215.79,181.78,215.79,191.29Z"/></g></svg>