<svg id="Layer_1" data-name="Layer 1" xmlns="http://www.w3.org/2000/svg" viewBox="0 0 500 500"><defs><style>.cls-1{fill:#38a4dd;}</style></defs><path d="M486.57,415.12h-9.81c-17.21,0-34.41-.07-51.62.05a9.21,9.21,0,0,1-7.33-3c-35.45-35.72-76.83-61.22-126.28-72.62-3.91-.9-7.89-1.54-12.06-2.34-8.4,26.19-16.67,52-24.93,77.74H191.66c9.34-26.05,18.55-51.76,28-78.11-48.11,7.38-88.26,30-124.7,60-.39-.31-.57-.39-.57-.47-.06-14.45-1.81-29,1.3-43.3,3.56-16.28,12.83-29,27.54-37,44.14-24,91.24-35.86,141.64-32.81,37.25,2.26,72.05,13.23,104.78,30.95,6.47,3.5,12.71,7.45,19.05,11.18.9.53,1.83,1,3.4,1.86-18.42-56.59-36.61-112.5-55.14-169.48-3.72,11.5-7.09,21.87-10.42,32.26-2.85,8.87-5.64,17.77-8.48,26.65-9.78,30.53-41.2,51.86-72.58,49,.29-1.06.51-2.09.86-3.06q30.24-84.21,60.42-168.43c.79-2.19,1.73-3,4.13-3q28.2.14,56.41,0c2.35,0,3.38.71,4.19,2.95q44.86,125.3,89.88,250.53l23.89,66.51C485.66,412.24,486,413.39,486.57,415.12Z"/><path class="cls-1" d="M77.52,133.63V414.85H13.43V95.12C20,94,26.57,92.89,33.18,91.79,62,87,90.93,84.16,120.13,85c30.07.82,58.28,8,83.23,25.65,50.63,35.88,52,109.68,5.42,147.42-33,26.72-70.67,34.31-111.92,25.07a27.07,27.07,0,0,1-2.86-1c5.27-12.22,10.41-24.16,20.93-32.73a34.32,34.32,0,0,1,17.61-7.71c19-2.5,31.39-13.76,39-30.61,15.87-35.35-5-73-43.83-79.13-14.83-2.34-29.66-.83-44.44,1Z"/></svg>